<?xml version="1.0" encoding="UTF-8"?>
<svg id="Capa_2" data-name="Capa 2" xmlns="http://www.w3.org/2000/svg" xmlns:xlink="http://www.w3.org/1999/xlink" viewBox="0 0 170.74 147.86">
  <defs>
    <style>
      .cls-1 {
        fill: #000;
      }

      .cls-1, .cls-2, .cls-3, .cls-4, .cls-5 {
        stroke-width: 0px;
      }

      .cls-2 {
        fill: #ff6339;
      }

      .cls-3 {
        fill: none;
      }

      .cls-4 {
        fill: url(#New_Pattern_3);
      }

      .cls-5 {
        fill: #fff;
      }
    </style>
    <pattern id="New_Pattern_3" data-name="New Pattern 3" x="0" y="0" width="14.16" height="16.33" patternTransform="translate(336.11 918.31) scale(1.06)" patternUnits="userSpaceOnUse" viewBox="0 0 14.16 16.33">
      <g>
        <rect class="cls-3" x="0" y="0" width="14.16" height="16.33"/>
        <path class="cls-1" d="M14.92,15.8c.58-.39,1.09-.82,1.33-1.49.28-.76-.93-1.08-1.21-.33-.12.33-.49.55-.76.74-.66.45-.04,1.53.63,1.08h0Z"/>
        <g>
          <path class="cls-1" d="M10.51,3.55c.83-.25,1.39-.87,1.92-1.53.5-.63-.42-1.47-.92-.84-.39.49-.77.99-1.38,1.18-.77.23-.38,1.42.39,1.19h0Z"/>
          <path class="cls-1" d="M7.82,9.55c.26-.37.66-.62,1.09-.74.78-.21.51-1.43-.27-1.22-.76.2-1.42.63-1.88,1.28-.46.66.59,1.33,1.05.67h0Z"/>
          <path class="cls-1" d="M10.62,15.46c.75-.38,1.47-.8,1.89-1.56.39-.71-.69-1.34-1.08-.63-.31.57-.89.83-1.44,1.11-.72.36-.09,1.44.63,1.08h0Z"/>
          <path class="cls-1" d="M2.09,6.92c.64-.35.98-.92,1.46-1.43.55-.59-.33-1.47-.88-.88-.4.43-.68.94-1.21,1.24-.71.39-.08,1.47.63,1.08h0Z"/>
          <path class="cls-1" d="M1.41,3.18c.3-.17.54-.4.76-.65.13-.15.38-.58.59-.59.8-.06.8-1.31,0-1.25-.44.03-.76.21-1.08.51-.31.3-.52.7-.91.91-.7.4-.07,1.48.63,1.08h0Z"/>
          <path class="cls-1" d="M1.66,11.43c.26-.19.46-.44.7-.66.2-.18.46-.51.72-.59.77-.24.44-1.45-.33-1.21-.4.13-.69.36-.97.66-.12.13-.27.22-.4.34-.12.11-.22.28-.35.37-.64.47-.02,1.56.63,1.08h0Z"/>
          <path class="cls-1" d="M4.4,13.41c.5-.33.92-.79,1.27-1.27.47-.65-.61-1.28-1.08-.63-.22.3-.52.62-.82.82-.67.44-.04,1.53.63,1.08h0Z"/>
          <path class="cls-1" d="M6.24,16.22c.19-.12.36-.26.52-.42.58-.57-.31-1.45-.88-.88-.08.09-.17.17-.27.23-.67.44-.05,1.52.63,1.08h0Z"/>
          <path class="cls-1" d="M11.33,6.5c.67-.06,1.39-.59,1.88-1.03.6-.54-.29-1.42-.88-.88-.15.13-.31.22-.48.33-.1.07-.41.33-.52.34-.8.07-.8,1.32,0,1.25h0Z"/>
          <path class="cls-1" d="M8.61,12.73c.68-.13,1.7-.58,1.94-1.29.26-.77-.95-1.09-1.2-.33.1-.13.09-.14-.04-.05-.09.05-.17.1-.26.16-.25.15-.49.25-.77.31-.79.16-.46,1.36.33,1.21h0Z"/>
          <path class="cls-1" d="M12.98,10.01c.58-.39,1.09-.82,1.33-1.49.28-.76-.93-1.08-1.21-.33-.12.33-.49.55-.76.74-.66.45-.04,1.53.63,1.08h0Z"/>
          <path class="cls-1" d="M.76,15.8c.58-.39,1.09-.82,1.33-1.49.28-.76-.93-1.08-1.21-.33-.12.33-.49.55-.76.74-.66.45-.04,1.53.63,1.08h0Z"/>
          <path class="cls-1" d="M6.06,6.81c.39-.16.68-.37.99-.65.3-.27.64-.41.75-.84.21-.78-.99-1.11-1.21-.33.13-.14.12-.16-.01-.05-.11.07-.21.17-.32.25-.18.14-.33.33-.54.41-.74.3-.41,1.51.33,1.21h0Z"/>
          <path class="cls-1" d="M6.2,3.33c.46-.4.91-.79,1.41-1.13.67-.46-.04-1.49-.71-1.03-.5.34-.95.74-1.41,1.13-.6.52.1,1.56.71,1.03h0Z"/>
        </g>
        <path class="cls-1" d="M-1.18,10.01c.58-.39,1.09-.82,1.33-1.49.28-.76-.93-1.08-1.21-.33-.12.33-.49.55-.76.74-.66.45-.04,1.53.63,1.08h0Z"/>
      </g>
    </pattern>
  </defs>
  <g id="Contenido">
    <g>
      <polygon class="cls-4" points="85.37 0 128.05 73.93 170.74 147.86 85.37 147.86 0 147.86 42.68 73.93 85.37 0"/>
      <rect class="cls-2" x="18.87" y="42.04" width="133" height="81.77"/>
      <g>
        <g>
          <ellipse class="cls-5" cx="116.44" cy="82.93" rx="20.79" ry="20.73"/>
          <path class="cls-1" d="M125.38,64.13c3.67,1.84,7.35,5.06,9.33,8.55,1.04,1.83,1.99,4.62,2.32,6.68,1.07,6.63-.63,12.24-4.84,17.23-.76.9-3.56,3.37-4.6,3.94-2.68,1.48-4.51-.46-6.55-2.73-1.3-1.44-1.9-3.35-2.38-5.22-1.24-4.83-1.86-9.92-.81-14.8,1.05-4.87,2.07-11.71,6.55-14.04l.98.37Z"/>
        </g>
        <g>
          <path class="cls-5" d="M74.98,82.93c0,11.45-9.31,20.73-20.79,20.73-11.48,0-20.79-9.28-20.79-20.73,0-11.45,9.31-20.73,20.79-20.73,11.48,0,20.79,9.28,20.79,20.73Z"/>
          <path class="cls-1" d="M63.13,64.13c3.67,1.84,7.35,5.06,9.33,8.55,1.04,1.83,1.99,4.62,2.32,6.68,1.07,6.63-.63,12.24-4.84,17.23-.76.9-3.56,3.37-4.6,3.94-2.68,1.48-4.51-.46-6.55-2.73-1.3-1.44-1.9-3.35-2.38-5.22-1.24-4.83-1.86-9.92-.81-14.8,1.05-4.87,2.07-11.71,6.55-14.04l.98.37Z"/>
        </g>
      </g>
    </g>
  </g>
</svg>