<?xml version="1.0" encoding="UTF-8"?>
<svg id="Capa_2" data-name="Capa 2" xmlns="http://www.w3.org/2000/svg" viewBox="0 0 50.22 50.22">
  <defs>
    <style>
      .cls-1 {
        fill: #000;
      }

      .cls-1, .cls-2 {
        stroke-width: 0px;
      }

      .cls-2 {
        fill: #fff;
      }
    </style>
  </defs>
  <g id="Contenido">
    <g>
      <path class="cls-1" d="M50.22,25.11C50.22,11.24,38.98,0,25.11,0S0,11.24,0,25.11c0,12.53,9.18,22.92,21.19,24.8v-17.55h-6.38v-7.26h6.38v-5.53c0-6.29,3.75-9.77,9.48-9.77,2.75,0,5.62.49,5.62.49v6.18h-3.17c-3.12,0-4.09,1.94-4.09,3.92v4.71h6.96l-1.11,7.26h-5.85v17.55c12-1.88,21.19-12.27,21.19-24.8Z"/>
      <path class="cls-2" d="M34.88,32.37l1.11-7.26h-6.96v-4.71c0-1.99.97-3.92,4.09-3.92h3.17v-6.18s-2.87-.49-5.62-.49c-5.74,0-9.48,3.48-9.48,9.77v5.53h-6.38v7.26h6.38v17.55c1.28.2,2.59.31,3.92.31s2.65-.1,3.92-.31v-17.55h5.85Z"/>
    </g>
  </g>
</svg>