<?xml version="1.0" encoding="UTF-8"?>
<svg id="Capa_2" data-name="Capa 2" xmlns="http://www.w3.org/2000/svg" viewBox="0 0 50.22 50.22">
  <defs>
    <style>
      .cls-1 {
        fill: #000;
      }

      .cls-1, .cls-2 {
        stroke-width: 0px;
      }

      .cls-2 {
        fill: #fff;
      }
    </style>
  </defs>
  <g id="Contenido">
    <g>
      <circle class="cls-1" cx="25.11" cy="25.11" r="25.11"/>
      <g>
        <path class="cls-2" d="M32.9,15.61c-.95,0-1.73.77-1.73,1.73s.77,1.73,1.73,1.73,1.73-.77,1.73-1.73-.77-1.73-1.73-1.73Z"/>
        <path class="cls-2" d="M25.23,17.82c-4,0-7.25,3.25-7.25,7.25s3.25,7.25,7.25,7.25,7.25-3.25,7.25-7.25-3.25-7.25-7.25-7.25ZM25.23,29.72c-2.56,0-4.64-2.08-4.64-4.64s2.08-4.64,4.64-4.64,4.64,2.08,4.64,4.64-2.08,4.64-4.64,4.64Z"/>
        <path class="cls-2" d="M30.99,39.8h-11.75c-4.88,0-8.84-3.97-8.84-8.84v-11.75c0-4.88,3.97-8.84,8.84-8.84h11.75c4.88,0,8.84,3.97,8.84,8.84v11.75c0,4.88-3.97,8.84-8.84,8.84ZM19.23,13.12c-3.35,0-6.07,2.72-6.07,6.07v11.75c0,3.35,2.72,6.07,6.07,6.07h11.75c3.35,0,6.07-2.72,6.07-6.07v-11.75c0-3.35-2.72-6.07-6.07-6.07h-11.75Z"/>
      </g>
    </g>
  </g>
</svg>