<?xml version="1.0" encoding="UTF-8"?>
<svg id="Capa_2" data-name="Capa 2" xmlns="http://www.w3.org/2000/svg" viewBox="0 0 50.22 50.22">
  <defs>
    <style>
      .cls-1 {
        fill: #000;
      }

      .cls-1, .cls-2 {
        stroke-width: 0px;
      }

      .cls-2 {
        fill: #fff;
      }
    </style>
  </defs>
  <g id="Contenido">
    <g>
      <circle class="cls-1" cx="25.11" cy="25.11" r="25.11"/>
      <path class="cls-2" d="M38.98,16.51c-.87.39-1.83.63-2.77.79.45-.07,1.1-.88,1.36-1.21.4-.5.73-1.06.92-1.68.02-.05.04-.11,0-.14-.06-.02-.1-.01-.15.01-1.05.56-2.13.97-3.28,1.26-.1.02-.17,0-.23-.06-.1-.11-.19-.21-.29-.29-.48-.41-1-.74-1.59-.97-.77-.31-1.61-.45-2.44-.39-.81.05-1.6.28-2.31.65-.72.37-1.36.9-1.87,1.52-.53.65-.92,1.42-1.12,2.23-.19.79-.18,1.56-.06,2.36.02.13,0,.15-.11.13-4.51-.67-8.25-2.28-11.28-5.74-.13-.15-.2-.15-.31.01-1.33,1.99-.68,5.19.98,6.76.22.21.45.42.69.61-.09.02-1.19-.1-2.18-.61-.13-.08-.2-.04-.21.11-.01.22,0,.41.04.65.25,2.02,1.65,3.88,3.57,4.61.23.1.48.18.72.22-.44.1-.89.16-2.14.07-.16-.03-.22.05-.16.2.94,2.56,2.97,3.32,4.49,3.76.2.04.41.04.61.08-.01.02-.02.02-.04.04-.5.77-2.25,1.34-3.06,1.62-1.48.52-3.09.75-4.65.6-.25-.04-.3-.03-.37,0-.07.04,0,.1.07.17.32.21.64.4.97.57.99.53,2.03.95,3.11,1.24,5.59,1.54,11.89.41,16.09-3.76,3.3-3.28,4.45-7.79,4.45-12.31,0-.18.21-.27.33-.37.86-.64,1.55-1.42,2.19-2.28.14-.19.14-.37.14-.44v-.02c0-.07,0-.05-.11,0Z"/>
    </g>
  </g>
</svg>